<svg width="26" height="24" viewBox="0 0 26 24" fill="none" xmlns="http://www.w3.org/2000/svg">
<path d="M19.6424 14.6274C19.2495 13.2031 18.4002 11.9471 17.2248 11.052C16.0493 10.1569 14.6127 9.67216 13.1352 9.67216C11.6578 9.67216 10.2211 10.1569 9.04565 11.052C7.87021 11.9471 7.02089 13.2031 6.628 14.6274L5.69172 18.0214C5.52361 18.6308 5.49853 19.2708 5.61843 19.8915C5.73833 20.5122 5.99998 21.0968 6.38296 21.5997C6.76594 22.1027 7.25992 22.5104 7.82636 22.791C8.39281 23.0716 9.01643 23.2177 9.64859 23.2177H16.6218C17.254 23.2177 17.8776 23.0716 18.4441 22.791C19.0105 22.5104 19.5045 22.1027 19.8875 21.5997C20.2704 21.0968 20.5321 20.5122 20.652 19.8915C20.7719 19.2708 20.7468 18.6308 20.5787 18.0214L19.6424 14.6274ZM18.5813 20.6048C18.3525 20.9077 18.0563 21.1531 17.7162 21.3217C17.3761 21.4902 17.0014 21.5772 16.6218 21.5758H9.64859C9.26929 21.5758 8.89511 21.4882 8.55523 21.3198C8.21536 21.1514 7.91897 20.9068 7.68917 20.605C7.45938 20.3033 7.30239 19.9525 7.23045 19.5801C7.15851 19.2077 7.17357 18.8237 7.27444 18.458L8.21072 15.064C8.50805 13.9862 9.15079 13.0356 10.0403 12.3583C10.9299 11.6809 12.0171 11.314 13.1352 11.314C14.2533 11.314 15.3405 11.6809 16.2301 12.3583C17.1196 13.0356 17.7624 13.9862 18.0597 15.064L18.996 18.458C19.0983 18.8235 19.1141 19.2078 19.0421 19.5805C18.9701 19.9532 18.8123 20.3039 18.5813 20.605V20.6048ZM7.4964 10.8169C7.63924 9.92412 7.44981 8.96839 6.96279 8.12508C6.47577 7.28177 5.74267 6.63985 4.89828 6.31717C3.99402 5.97182 3.0717 6.02682 2.30032 6.47197C0.766865 7.35735 0.363323 9.53946 1.40094 11.3363C1.8878 12.1796 2.62095 12.8217 3.46534 13.1442C3.83938 13.29 4.23697 13.366 4.63841 13.3685C5.13853 13.3703 5.6302 13.2395 6.0633 12.9893C6.83421 12.5441 7.34319 11.7726 7.4964 10.8169ZM5.87505 10.5574C5.80167 11.0155 5.57694 11.3742 5.24226 11.5674C4.90757 11.7607 4.48458 11.7758 4.05102 11.6104C3.5578 11.422 3.12157 11.0331 2.82265 10.5153C2.24799 9.51996 2.38457 8.31934 3.12126 7.89389C3.30646 7.78879 3.51619 7.73465 3.72912 7.73698C3.92885 7.73905 4.12652 7.7776 4.31239 7.85074C4.80562 8.03919 5.24185 8.42806 5.54077 8.94582C5.83969 9.46357 5.95837 10.036 5.87505 10.5574ZM7.67423 7.41548C8.2572 7.88152 8.92293 8.12421 9.59615 8.12416C9.7978 8.1241 9.99887 8.10241 10.1959 8.05946C11.9262 7.68332 12.9753 5.72784 12.5345 3.70038C12.3278 2.74881 11.825 1.91397 11.119 1.34953C10.363 0.745111 9.46747 0.516327 8.59738 0.705553C6.86715 1.08164 5.81804 3.03712 6.25873 5.06458C6.46556 6.0162 6.96828 6.85104 7.67423 7.41548ZM8.94607 2.30997C9.02585 2.29277 9.10725 2.28417 9.18886 2.28432C9.49405 2.28432 9.80795 2.40371 10.0938 2.63224C10.5062 2.9619 10.8032 3.46519 10.9301 4.04944C11.1744 5.17284 10.6784 6.27459 9.84715 6.4553C9.46947 6.53739 9.06187 6.42307 8.69953 6.13333C8.28717 5.80363 7.99014 5.30034 7.8632 4.71614C7.61892 3.59243 8.11487 2.49068 8.94607 2.30997ZM23.9701 6.47197C23.199 6.02682 22.2762 5.97182 21.3721 6.31717C20.5278 6.63975 19.7946 7.28177 19.3077 8.12508C18.8209 8.96839 18.6314 9.92432 18.7741 10.8169C18.9271 11.7726 19.436 12.5441 20.2072 12.9893C20.6403 13.2395 21.132 13.3703 21.6321 13.3685C22.0336 13.366 22.4311 13.29 22.8052 13.1442C23.6496 12.8217 24.3827 12.1796 24.8696 11.3363C25.9071 9.53946 25.5036 7.35735 23.9701 6.47197ZM23.4478 10.5153C23.1489 11.0331 22.7126 11.422 22.2194 11.6104C21.786 11.776 21.363 11.7608 21.0283 11.5674C20.6936 11.3741 20.469 11.0155 20.3955 10.5574C20.3121 10.036 20.4307 9.46378 20.7297 8.94628C21.0286 8.42878 21.4648 8.03965 21.958 7.8512C22.1439 7.778 22.3416 7.73938 22.5413 7.73724C22.7542 7.73491 22.964 7.78905 23.1492 7.89414C23.8858 8.31923 24.0226 9.5197 23.4478 10.5153ZM16.0745 8.05946C16.2716 8.10241 16.4726 8.1241 16.6743 8.12416C17.3474 8.12416 18.0134 7.88152 18.5962 7.41548C19.3021 6.85109 19.8049 6.0162 20.0117 5.06463C20.4524 3.03717 19.4033 1.0817 17.673 0.705604C16.803 0.51648 15.9074 0.745111 15.1514 1.34958C14.4454 1.91397 13.9427 2.74887 13.7359 3.70038C13.2951 5.72784 14.3442 7.68332 16.0745 8.05946ZM15.3403 4.04918C15.4672 3.46493 15.7643 2.96144 16.1766 2.63199C16.4625 2.40346 16.7764 2.28406 17.0816 2.28406C17.1632 2.28391 17.2446 2.29251 17.3244 2.30972C18.1556 2.49042 18.6515 3.59243 18.4073 4.71558C18.2803 5.29983 17.9833 5.80332 17.571 6.13282C17.2087 6.42251 16.8014 6.53683 16.4234 6.45478C15.592 6.27433 15.0961 5.17243 15.3403 4.04918Z" fill="#141415"/>
</svg>
